<svg width="162" height="41" viewBox="0 0 162 41" fill="none" xmlns="http://www.w3.org/2000/svg">
<g clip-path="url(#clip0_2344_23022)">
<path d="M26.7371 1.95397C25.5046 1.47996 24.2278 1.13147 22.9271 0.914062L20.2793 10.9317C21.6052 11.0102 22.904 11.3664 24.0881 11.9766L26.7371 1.95397Z" fill="url(#paint0_linear_2344_23022)"/>
<path d="M38.1875 27.7107C38.6521 26.46 38.9929 25.1648 39.2043 23.8458L29.3177 21.1602C29.2468 22.5048 28.9016 23.8232 28.3057 25.0264L38.1875 27.7107Z" fill="url(#paint1_linear_2344_23022)"/>
<path d="M36.8144 10.6492C37.1531 11.2438 37.4582 11.8487 37.7303 12.4616L28.8651 17.6503C28.6607 17.0124 28.3878 16.3866 28.0437 15.7825C27.7116 15.1992 27.3289 14.664 26.9043 14.1792L35.7632 8.99414C36.1361 9.52275 36.4872 10.0746 36.8144 10.6492Z" fill="url(#paint2_linear_2344_23022)"/>
<path d="M0.672293 15.4742C2.02654 10.3507 5.33306 5.98225 9.86446 3.33008L14.9911 12.3318C12.8148 13.6055 11.2267 15.7036 10.5762 18.1644C9.92579 20.6252 10.2663 23.2471 11.5228 25.4534C12.7794 27.6597 14.849 29.2696 17.2764 29.9291C19.7038 30.5884 22.2902 30.2432 24.4666 28.9694L29.5932 37.9711C25.0618 40.6234 19.6768 41.342 14.6226 39.9691C9.56852 38.5963 5.25939 35.2443 2.6432 30.6506C0.0270057 26.0568 -0.681952 20.5978 0.672293 15.4742Z" fill="url(#paint3_linear_2344_23022)"/>
<path d="M61.9028 30.254C59.7924 30.254 58.0157 29.8883 56.5727 29.1568C55.1477 28.4254 54.0655 27.3374 53.3259 25.8928C52.6044 24.43 52.2437 22.6288 52.2437 20.4894C52.2437 17.2711 53.0553 14.8391 54.6787 13.1934C56.3202 11.5476 58.7282 10.7248 61.9028 10.7248C63.7066 10.7248 65.2759 11.0356 66.6107 11.6573C67.9635 12.2608 69.0097 13.166 69.7493 14.3728C70.4888 15.5797 70.8586 17.0608 70.8586 18.8163H65.1496C65.1496 18.0848 65.0234 17.454 64.7708 16.9237C64.5183 16.3934 64.1485 15.982 63.6615 15.6894C63.1925 15.3968 62.5973 15.2505 61.8758 15.2505C61.028 15.2505 60.3426 15.4334 59.8195 15.7991C59.3144 16.1648 58.9447 16.6768 58.7102 17.3351C58.4757 17.9934 58.3584 18.7523 58.3584 19.6117V21.3671C58.3584 22.2265 58.4757 22.9854 58.7102 23.6437C58.9627 24.302 59.3415 24.814 59.8466 25.1797C60.3516 25.5454 61.01 25.7283 61.8217 25.7283C62.6153 25.7283 63.2647 25.5911 63.7698 25.3168C64.2928 25.0425 64.6807 24.6494 64.9332 24.1374C65.2038 23.6071 65.339 22.9854 65.339 22.2723H70.8586C70.8586 23.9911 70.5068 25.4448 69.8034 26.6334C69.0999 27.822 68.0808 28.7271 66.746 29.3488C65.4112 29.9523 63.7968 30.254 61.9028 30.254ZM81.0947 30.254C79.4713 30.254 78.0553 29.9797 76.8468 29.4311C75.6563 28.8643 74.7273 28.0231 74.0599 26.9077C73.3925 25.774 73.0588 24.366 73.0588 22.6837C73.0588 20.9831 73.3925 19.5751 74.0599 18.4597C74.7273 17.3443 75.6563 16.5123 76.8468 15.9637C78.0553 15.3968 79.4713 15.1134 81.0947 15.1134C82.718 15.1134 84.134 15.3968 85.3425 15.9637C86.5511 16.5123 87.489 17.3443 88.1564 18.4597C88.8238 19.5751 89.1575 20.9831 89.1575 22.6837C89.1575 24.366 88.8238 25.774 88.1564 26.9077C87.489 28.0231 86.5511 28.8643 85.3425 29.4311C84.134 29.9797 82.718 30.254 81.0947 30.254ZM81.0947 26.5511C81.726 26.5511 82.24 26.4323 82.6369 26.1945C83.0337 25.9385 83.3223 25.582 83.5027 25.1248C83.6831 24.6677 83.7733 24.1191 83.7733 23.4791V21.9157C83.7733 21.2757 83.6831 20.7271 83.5027 20.27C83.3223 19.7945 83.0337 19.438 82.6369 19.2003C82.24 18.9443 81.726 18.8163 81.0947 18.8163C80.4633 18.8163 79.9493 18.9443 79.5524 19.2003C79.1736 19.438 78.8941 19.7945 78.7137 20.27C78.5333 20.7271 78.4431 21.2757 78.4431 21.9157V23.4791C78.4431 24.1191 78.5333 24.6677 78.7137 25.1248C78.8941 25.582 79.1736 25.9385 79.5524 26.1945C79.9493 26.4323 80.4633 26.5511 81.0947 26.5511ZM98.3565 30.254C97.4907 30.254 96.6249 30.1625 95.7591 29.9797C94.9113 29.8151 94.1267 29.55 93.4052 29.1843C92.7017 28.8003 92.1335 28.3157 91.7006 27.7305C91.2677 27.1454 91.0512 26.4323 91.0512 25.5911C91.0512 25.5363 91.0512 25.4814 91.0512 25.4265C91.0512 25.3534 91.0603 25.2803 91.0783 25.2071H96.0838C96.0657 25.262 96.0567 25.3168 96.0567 25.3717C96.0567 25.4265 96.0567 25.4723 96.0567 25.5088C96.0747 25.838 96.183 26.1123 96.3814 26.3317C96.5978 26.5511 96.8774 26.7157 97.2201 26.8254C97.5629 26.9351 97.9417 26.99 98.3565 26.99C98.6091 26.99 98.9067 26.9717 99.2494 26.9351C99.6101 26.8985 99.9258 26.8071 100.196 26.6608C100.467 26.5145 100.602 26.2677 100.602 25.9203C100.602 25.6094 100.44 25.3808 100.115 25.2345C99.8086 25.07 99.3937 24.942 98.8706 24.8505C98.3655 24.7408 97.8064 24.6311 97.1931 24.5214C96.5257 24.4117 95.8493 24.2745 95.1638 24.11C94.4964 23.9271 93.8741 23.6803 93.2969 23.3694C92.7197 23.0403 92.2508 22.6105 91.89 22.0803C91.5473 21.55 91.3759 20.8643 91.3759 20.0231C91.3759 19.0723 91.5653 18.2768 91.9441 17.6368C92.3409 16.9968 92.8731 16.494 93.5404 16.1283C94.2259 15.7443 94.9925 15.4791 95.8403 15.3328C96.7061 15.1683 97.608 15.086 98.5459 15.086C99.3576 15.086 100.16 15.1683 100.954 15.3328C101.766 15.4791 102.505 15.726 103.173 16.0734C103.84 16.4025 104.372 16.8414 104.769 17.39C105.166 17.9385 105.364 18.606 105.364 19.3923C105.364 19.4471 105.364 19.5203 105.364 19.6117C105.364 19.6848 105.355 19.7397 105.337 19.7763H100.386V19.5568C100.386 19.2825 100.287 19.0631 100.088 18.8985C99.9078 18.7157 99.6643 18.5877 99.3576 18.5145C99.069 18.4231 98.7714 18.3774 98.4648 18.3774C98.3565 18.3774 98.1942 18.3865 97.9777 18.4048C97.7613 18.4048 97.5358 18.4323 97.3013 18.4871C97.0849 18.542 96.8955 18.6334 96.7331 18.7614C96.5888 18.8894 96.5167 19.0723 96.5167 19.31C96.5167 19.5294 96.6159 19.7123 96.8143 19.8585C97.0307 19.9865 97.3103 20.0963 97.6531 20.1877C98.0138 20.2608 98.4106 20.3431 98.8435 20.4345C99.529 20.5625 100.269 20.6905 101.062 20.8185C101.856 20.9283 102.604 21.1294 103.308 21.422C104.029 21.6963 104.616 22.126 105.067 22.7111C105.517 23.278 105.743 24.0825 105.743 25.1248C105.743 26.1123 105.545 26.9443 105.148 27.6208C104.751 28.2791 104.21 28.8003 103.524 29.1843C102.839 29.5683 102.045 29.8425 101.143 30.0071C100.26 30.1717 99.3306 30.254 98.3565 30.254ZM108.295 29.9248V15.4425H112.705L113.057 17.6094H113.246C113.589 17.0608 114.013 16.6037 114.518 16.238C115.023 15.854 115.573 15.5705 116.169 15.3877C116.782 15.2048 117.404 15.1134 118.035 15.1134C119.136 15.1134 120.047 15.3328 120.768 15.7717C121.49 16.1923 122.022 16.8048 122.365 17.6094H122.554C122.897 17.0608 123.311 16.6037 123.799 16.238C124.304 15.854 124.854 15.5705 125.449 15.3877C126.044 15.2048 126.648 15.1134 127.262 15.1134C128.362 15.1134 129.273 15.3328 129.994 15.7717C130.716 16.1923 131.248 16.8048 131.591 17.6094C131.952 18.414 132.132 19.3923 132.132 20.5443V29.9248H126.748V21.2025C126.748 20.8917 126.712 20.6174 126.639 20.3797C126.567 20.1237 126.459 19.9043 126.315 19.7214C126.17 19.5385 125.99 19.4014 125.774 19.31C125.557 19.2003 125.314 19.1454 125.043 19.1454C124.61 19.1454 124.231 19.2551 123.907 19.4745C123.582 19.6757 123.33 19.95 123.149 20.2974C122.987 20.6265 122.906 21.0014 122.906 21.422V29.9248H117.521V21.2025C117.521 20.8917 117.485 20.6174 117.413 20.3797C117.341 20.1237 117.233 19.9043 117.088 19.7214C116.944 19.5385 116.764 19.4014 116.547 19.31C116.331 19.2003 116.087 19.1454 115.817 19.1454C115.384 19.1454 115.005 19.2551 114.68 19.4745C114.374 19.6757 114.13 19.95 113.95 20.2974C113.77 20.6265 113.679 21.0014 113.679 21.422V29.9248H108.295ZM135.352 13.742V10.0391H140.736V13.742H135.352ZM135.352 29.9248V15.4425H140.736V29.9248H135.352ZM151.378 30.254C149.755 30.254 148.339 29.9797 147.13 29.4311C145.94 28.8643 145.011 28.0231 144.343 26.9077C143.676 25.774 143.342 24.366 143.342 22.6837C143.342 20.9831 143.676 19.5751 144.343 18.4597C145.011 17.326 145.94 16.4848 147.13 15.9363C148.339 15.3694 149.755 15.086 151.378 15.086C152.46 15.086 153.48 15.2048 154.436 15.4425C155.392 15.6803 156.23 16.046 156.952 16.5397C157.673 17.0334 158.233 17.6734 158.629 18.4597C159.044 19.246 159.252 20.1877 159.252 21.2848H154.03C154.03 20.718 153.922 20.2517 153.705 19.886C153.507 19.5203 153.209 19.2551 152.812 19.0905C152.415 18.9077 151.937 18.8163 151.378 18.8163C150.747 18.8163 150.233 18.9443 149.836 19.2003C149.457 19.438 149.178 19.7945 148.997 20.27C148.817 20.7271 148.727 21.2757 148.727 21.9157V23.4791C148.727 24.1191 148.817 24.6677 148.997 25.1248C149.196 25.582 149.493 25.9385 149.89 26.1945C150.305 26.4323 150.837 26.5511 151.486 26.5511C152.082 26.5511 152.578 26.4688 152.975 26.3043C153.389 26.1214 153.705 25.8471 153.922 25.4814C154.138 25.0974 154.246 24.6128 154.246 24.0277H159.252C159.252 25.1248 159.044 26.0757 158.629 26.8803C158.233 27.6665 157.673 28.3065 156.952 28.8003C156.23 29.294 155.392 29.6597 154.436 29.8974C153.48 30.1351 152.46 30.254 151.378 30.254Z" fill="white"/>
</g>
<defs>
<linearGradient id="paint0_linear_2344_23022" x1="22.9354" y1="9.48175" x2="21.6218" y2="39.7857" gradientUnits="userSpaceOnUse">
<stop stop-color="#24D6F8"/>
<stop offset="1" stop-color="#50F2A5"/>
</linearGradient>
<linearGradient id="paint1_linear_2344_23022" x1="22.9352" y1="9.48179" x2="21.6216" y2="39.7857" gradientUnits="userSpaceOnUse">
<stop stop-color="#24D6F8"/>
<stop offset="1" stop-color="#50F2A5"/>
</linearGradient>
<linearGradient id="paint2_linear_2344_23022" x1="22.9355" y1="9.48083" x2="21.622" y2="39.7847" gradientUnits="userSpaceOnUse">
<stop stop-color="#24D6F8"/>
<stop offset="1" stop-color="#50F2A5"/>
</linearGradient>
<linearGradient id="paint3_linear_2344_23022" x1="22.9356" y1="9.48225" x2="21.6221" y2="39.7862" gradientUnits="userSpaceOnUse">
<stop stop-color="#24D6F8"/>
<stop offset="1" stop-color="#50F2A5"/>
</linearGradient>
<clipPath id="clip0_2344_23022">
<rect width="161.212" height="40" fill="white" transform="translate(0 0.914062)"/>
</clipPath>
</defs>
</svg>
